PathFileType	4	(X/Y/Z)	C:\Users\Basilio\Documents\Thesis Gigler\squatting_fais\c3dfiles\076\SLS_front_pre1\markers_experimental.trc
DataRate	CameraRate	NumFrames	NumMarkers	Units	OrigDataRate	OrigDataStartFrame	OrigNumFrames
200.000000	200.000000	4	61	mm	200.000000	967	1548
Frame#	Time	FHD			LBHD			RBHD			C7			T10			CLAV			LSHO			LUUPA			LMUPA			LDUPA			LLEP			LMEP			LRAD			LUL			LRFIN			RSHO			RUPA1			RMUPA			RDUPA			RLEP			RMEP			RRAD			RUL			RUFIN			LASI			RASI			USACR			LSACR			RSACR			LTHI1			LTHI2			LTHI3			LTHI4			LLFC			LMFC			LTIB1			LTIB2			LTIB3			LTIB4			LLMAL			LMMAL			LHEE			LMT1			LMT2			LMT5			RTHI			RTHI2			RTHI3			RTHI4			RLFC			RMFC			RTIB1			RTIB2			RTIB3			RTIB4			RLMAL			RMMAL			RHEE			RMT1			RMT2			RMT5			
		X1	Y1	Z1	X2	Y2	Z2	X3	Y3	Z3	X4	Y4	Z4	X5	Y5	Z5	X6	Y6	Z6	X7	Y7	Z7	X8	Y8	Z8	X9	Y9	Z9	X10	Y10	Z10	X11	Y11	Z11	X12	Y12	Z12	X13	Y13	Z13	X14	Y14	Z14	X15	Y15	Z15	X16	Y16	Z16	X17	Y17	Z17	X18	Y18	Z18	X19	Y19	Z19	X20	Y20	Z20	X21	Y21	Z21	X22	Y22	Z22	X23	Y23	Z23	X24	Y24	Z24	X25	Y25	Z25	X26	Y26	Z26	X27	Y27	Z27	X28	Y28	Z28	X29	Y29	Z29	X30	Y30	Z30	X31	Y31	Z31	X32	Y32	Z32	X33	Y33	Z33	X34	Y34	Z34	X35	Y35	Z35	X36	Y36	Z36	X37	Y37	Z37	X38	Y38	Z38	X39	Y39	Z39	X40	Y40	Z40	X41	Y41	Z41	X42	Y42	Z42	X43	Y43	Z43	X44	Y44	Z44	X45	Y45	Z45	X46	Y46	Z46	X47	Y47	Z47	X48	Y48	Z48	X49	Y49	Z49	X50	Y50	Z50	X51	Y51	Z51	X52	Y52	Z52	X53	Y53	Z53	X54	Y54	Z54	X55	Y55	Z55	X56	Y56	Z56	X57	Y57	Z57	X58	Y58	Z58	X59	Y59	Z59	X60	Y60	Z60	X61	Y61	Z61	

968	4.835	-192.7700195312501	1316.595703125	-1001.595520019531	-333.0056762695313	1241.173217773438	-1092.058715820313	-310.8401794433594	1241.646118164063	-941.8472290039065	-362.9410705566407	1131.630249023438	-999.1638793945315	-485.0871887207032	848.7099609375002	-1019.931335449219	-244.0197143554688	1045.097534179688	-1036.64306640625	-326.0292663574219	1138.79150390625	-1154.523071289063	-242.6924591064454	1180.150512695313	-1283.495971679688	-202.6956329345704	1200.403076171875	-1262.691040039063	-195.243392944336	1209.07177734375	-1322.835693359375	-155.5790557861328	1219.452758789063	-1363.019287109375	-99.44081878662112	1163.052368164063	-1342.81396484375	41.39529418945313	1379.317016601563	-1361.955200195313	22.31097412109375	1383.603637695313	-1424.010620117188	88.87264251708986	1447.352661132813	-1371.137817382813	-254.6849517822266	1060.762329101563	-875.1148071289065	-144.0836486816407	929.0216064453127	-811.278991699219	-103.5132217407227	947.795104980469	-831.753112792969	-85.02560424804689	891.0418701171877	-817.6097412109377	-24.77278327941895	865.5862426757815	-829.4475097656252	-48.96206665039064	829.0469970703127	-891.6492309570315	200.2106475830079	810.0312500000002	-925.8383789062502	196.9871520996094	791.2407226562502	-862.257019042969	275.8072814941407	808.0994262695315	-912.4063110351565	-397.971405029297	671.0795898437501	-1147.517700195313	nan	nan	nan	-533.7758789062501	742.2412719726564	-1019.640319824219	-551.2946777343751	716.7615356445314	-1048.377563476563	-546.0836181640626	711.5538940429689	-992.1142578125002	-399.554168701172	551.4750976562501	-1214.58056640625	-315.7741699218751	536.7634887695314	-1214.250854492188	-289.9889831542969	574.0665283203126	-1194.47802734375	-287.4454040527344	483.2683715820314	-1206.595092773438	-163.5982971191407	394.2404785156251	-1175.859985351563	-151.2905883789063	412.6109619140626	-1060.144409179688	-184.9430236816407	280.0366516113282	-1068.184936523438	-231.060531616211	225.2732391357422	-1119.983276367188	-205.5499420166016	226.5458984375001	-1080.679931640625	-264.8428344726563	187.3423614501953	-1037.536865234375	-376.4551391601563	104.6208419799805	-1075.86865234375	-347.1949157714844	123.3089065551758	-994.284606933594	-441.2123107910157	96.89495849609378	-1022.519470214844	-240.2522277832032	51.55291748046876	-1003.264831542969	-234.3701934814454	49.17892837524415	-1042.281372070313	-258.7986145019532	43.46850585937501	-1092.036499023438	-290.0355834960938	492.0156250000001	-870.2723388671877	-225.0454254150391	503.3695373535157	-878.0081787109377	-214.1531372070313	536.4338989257814	-886.5733032226565	-166.9357604980469	449.390838623047	-904.490417480469	-117.3161544799805	422.5472717285157	-917.383483886719	-105.6631698608399	459.6831359863282	-1029.786010742188	20.12498474121094	400.3494567871095	-943.9971313476565	58.09891891479494	298.2376098632813	-933.372497558594	81.68460845947267	338.7287597656251	-938.9959716796877	128.0031280517578	335.1312866210938	-974.0041503906252	222.6549835205079	208.4867401123047	-963.134216308594	221.6809082031251	246.8276062011719	-1037.425048828125	210.9526062011719	156.6529235839844	-1012.958435058594	351.9095764160157	306.5126647949219	-1016.570922851563	348.5627746582032	313.2159118652344	-971.3289184570315	344.4226684570313	275.3696289062501	-921.8630371093752	
969	4.84	-193.3103790283204	1318.613647460938	-1001.651916503906	-334.0437316894532	1242.49169921875	-1092.371215820313	-311.4408264160157	1243.587158203125	-942.2327880859377	-363.2584533691407	1133.277587890625	-999.6555175781252	-484.6221618652345	850.091003417969	-1019.984130859375	-244.0740966796876	1046.72509765625	-1036.81884765625	-326.5287780761719	1140.199951171875	-1154.940185546875	-242.942855834961	1181.522094726563	-1283.922241210938	-203.1135253906251	1201.491821289063	-1263.0673828125	-195.3962860107422	1210.18408203125	-1323.167236328125	-156.0259552001953	1220.450805664063	-1363.319458007813	-99.66644287109378	1164.310424804688	-1343.079223632813	41.26161575317384	1380.805541992188	-1360.661865234375	22.08036422729493	1385.335693359375	-1422.867065429688	88.40197753906251	1448.875854492188	-1369.221435546875	-255.5301208496094	1061.817138671875	-875.2132568359377	-145.8931121826172	929.018981933594	-810.8690185546877	-105.1168441772461	947.1155395507815	-831.8537597656252	-87.24304962158205	890.1911621093752	-817.456726074219	-27.28904533386231	864.1662597656252	-828.8018798828127	-51.90168762207033	827.7762451171877	-891.8243408203127	196.6813659667969	805.2522583007815	-925.6862792968752	193.2578277587891	786.879821777344	-862.045837402344	272.3008728027344	802.7734375000002	-912.3117675781252	-398.3826293945314	672.6531982421876	-1147.011474609375	nan	nan	nan	-533.4868164062501	743.9713745117189	-1019.4423828125	-550.6899414062501	718.3266601562501	-1048.478759765625	-545.2346801757814	712.9524536132814	-991.9907226562502	-399.3496093750001	552.2272949218751	-1214.671630859375	-315.7460632324219	537.3062133789064	-1214.4833984375	-289.8102722167969	574.5979614257814	-1194.934326171875	-287.3740539550782	483.553436279297	-1206.981079101563	-163.9813690185547	394.2358398437501	-1176.41796875	-151.4019470214844	412.5216674804689	-1060.751342773438	-184.9728546142578	280.0482482910157	-1068.586547851563	-231.1378631591797	225.330795288086	-1120.231201171875	-205.6042175292969	226.4903869628907	-1081.03369140625	-264.8503723144532	187.3805084228516	-1037.7333984375	-376.4286804199219	104.5962448120117	-1075.891235351563	-347.1553344726563	123.3908081054688	-994.3233032226565	-441.2235107421876	96.93418884277347	-1022.514343261719	-240.2512512207032	51.550106048584	-1003.269470214844	-234.4427032470704	49.22132492065431	-1042.2421875	-258.8289489746094	43.41916656494141	-1092.02880859375	-289.4499206542969	493.1096191406251	-870.2441406250002	-224.2980957031251	504.4990844726564	-877.7023925781252	-213.4575195312501	537.4887084960939	-886.4515380859377	-166.4692535400391	450.1598205566407	-904.4307250976565	-116.9005737304688	423.4298706054689	-917.3169555664065	-105.3635787963867	460.5407104492189	-1029.825073242188	20.54904747009278	401.0610961914064	-944.023132324219	58.3897171020508	298.9179077148438	-933.2485351562502	82.12306213378908	339.5186767578126	-938.8603515625002	128.3410797119141	335.5612792968751	-973.9171142578127	222.6412963867188	208.8662109375001	-962.8868408203127	221.6925811767579	246.9445037841797	-1037.379516601563	210.7760162353516	157.0909881591797	-1012.4140625	352.3319396972657	306.1028442382813	-1016.847229003906	348.8739013671876	313.1245422363282	-971.5098266601565	344.7523498535157	275.4815368652344	-921.8452148437502	
970	4.845	-193.9676666259766	1320.693603515625	-1001.954040527344	-334.0867919921876	1245.024291992188	-1092.911010742188	-311.9998779296876	1245.286865234375	-942.486022949219	-363.6130676269532	1134.971923828125	-1000.173767089844	-484.1570739746095	851.383483886719	-1020.055053710938	-244.098373413086	1048.465698242188	-1036.96728515625	-326.7998962402344	1141.701416015625	-1155.252197265625	-243.0077209472657	1182.383911132813	-1284.262084960938	-203.3766479492188	1202.88330078125	-1263.408569335938	-195.8245239257813	1211.0869140625	-1323.627319335938	-155.7391967773438	1221.7412109375	-1363.556518554688	-99.5152282714844	1165.397583007813	-1342.881713867188	41.08962631225587	1382.192138671875	-1359.348022460938	22.11640167236328	1387.143798828125	-1421.68310546875	88.18359375000001	1450.3994140625	-1367.528198242188	-256.4363403320313	1062.914672851563	-875.2006835937502	-147.7796478271485	928.6438598632815	-810.9546508789065	-106.9962615966797	946.5725097656252	-831.6091918945315	-89.61650848388673	889.264831542969	-817.3687744140627	-30.13983917236329	862.557800292969	-829.0032958984377	-55.3288917541504	825.6260986328127	-890.5642700195315	193.1953735351563	800.7812500000002	-925.530700683594	189.5630798339844	782.669860839844	-861.8621826171877	268.7568359375001	797.438415527344	-912.494323730469	-399.2402648925782	673.4252929687501	-1146.108642578125	nan	nan	nan	-532.6806030273439	745.0323486328126	-1019.389099121094	-550.1258544921876	719.5863037109376	-1048.21484375	-544.3853759765626	714.5330200195314	-991.821716308594	-399.3420715332032	553.1453247070314	-1214.807006835938	-315.6114807128907	537.9404296875001	-1214.801391601563	-289.4972229003907	575.1028442382814	-1195.324340820313	-287.5187988281251	484.0119628906251	-1207.199340820313	-164.2772827148438	394.2969360351564	-1176.971923828125	-151.545150756836	412.5223083496095	-1061.32666015625	-185.130111694336	280.1088256835938	-1068.961669921875	-231.2900085449219	225.2936248779297	-1120.423095703125	-205.6817016601563	226.5446319580079	-1081.217041015625	-264.8913879394532	187.430419921875	-1037.89892578125	-376.3359375000001	104.5670471191407	-1075.875244140625	-347.0844116210938	123.4452056884766	-994.2878417968752	-441.237762451172	96.95159149169925	-1022.504089355469	-240.2552795410157	51.53119277954103	-1003.155517578125	-234.4186706542969	49.0912208557129	-1042.271240234375	-258.8384399414063	43.42764282226563	-1091.992431640625	-288.6792297363282	494.476287841797	-870.1609497070315	-223.5570831298829	505.6964721679689	-877.836853027344	-212.6827850341797	538.7081909179689	-886.4929809570315	-165.8582611083985	451.2601928710939	-904.3908691406252	-116.3943862915039	424.3211364746095	-917.179382324219	-104.7899856567383	461.2530822753907	-1029.788330078125	20.98371696472168	401.6376037597657	-944.0510253906252	58.68319320678712	299.6363220214844	-933.002136230469	82.53134918212892	340.1318969726563	-938.7573242187502	128.5809631347657	335.9487609863282	-973.8184204101565	222.8728332519532	209.2930755615235	-962.6635742187502	221.6682281494141	246.9803009033204	-1037.195068359375	210.6966094970704	157.3426971435547	-1012.145263671875	352.6547546386719	306.0252990722657	-1017.14599609375	349.0534973144532	312.8492126464844	-971.8206176757815	345.3465576171876	275.9595031738282	-921.7546997070315	
971	4.850000000000001	-194.6063232421876	1322.785522460938	-1002.17626953125	-334.5252380371094	1247.013427734375	-1093.000732421875	-312.4546508789063	1247.170776367188	-942.7735595703127	-363.9371337890626	1136.5439453125	-1000.697570800781	-483.5722045898439	852.7503662109377	-1020.057312011719	-243.9624633789063	1050.115844726563	-1036.980102539063	-327.5702209472657	1142.85888671875	-1155.653686523438	-243.265853881836	1183.323486328125	-1284.627075195313	-203.5461425781251	1204.102905273438	-1263.734741210938	-195.7974395751954	1212.351196289063	-1324.02880859375	-155.8751678466797	1222.993286132813	-1363.745849609375	-99.755485534668	1166.695434570313	-1343.194946289063	40.72574996948243	1383.543212890625	-1358.2099609375	22.06640625	1388.527221679688	-1420.4345703125	87.90990447998048	1451.856567382813	-1365.84814453125	-257.3344421386719	1064.063720703125	-875.2271118164065	-149.7436828613282	928.5103759765627	-810.6748657226565	-108.8114089965821	945.8342895507815	-831.551452636719	-92.06478881835939	888.390808105469	-817.2903442382815	-32.81706619262696	861.0071411132815	-828.774108886719	-58.2806739807129	824.6355590820315	-891.0349731445315	189.4960479736328	795.9297485351565	-925.4400634765627	185.6216125488282	778.5767822265627	-861.7779541015627	264.9823913574219	791.7108154296877	-912.392028808594	-398.306121826172	674.5328369140626	-1146.1376953125	nan	nan	nan	-531.9100341796876	746.7366943359376	-1019.322937011719	-549.2783203125001	720.9713745117189	-1048.060668945313	-543.7334594726564	715.8486328125001	-991.7062988281252	-399.3502197265626	554.1771240234376	-1214.886840820313	-315.4249267578126	538.4862670898439	-1215.099609375	-289.1299133300782	575.5581665039064	-1195.786865234375	-287.7033996582032	484.4614868164064	-1207.447875976563	-164.5826568603516	394.227264404297	-1177.300048828125	-151.6961975097657	412.6064453125001	-1061.768310546875	-185.1634521484375	280.1098632812501	-1069.255859375	-231.3494567871094	225.2313385009766	-1120.648803710938	-205.7344360351563	226.5748291015626	-1081.329956054688	-264.9157409667969	187.5120697021485	-1038.0126953125	-376.3530883789063	104.5836486816407	-1075.856323242188	-347.0234680175782	123.4349822998047	-994.2722167968752	-441.2359619140626	96.93460845947268	-1022.5048828125	-240.2469482421876	51.47761535644533	-1003.153930664063	-234.4002838134766	49.14818191528322	-1042.204467773438	-258.8535766601563	43.44876861572266	-1091.963623046875	-287.9958496093751	495.8651428222657	-870.2186279296877	-222.8867187500001	506.8192749023439	-877.8521118164065	-211.9678955078126	539.8800048828126	-886.6040649414065	-165.3903198242188	452.2147521972657	-904.4195556640627	-115.8761215209961	425.2366638183595	-917.1010742187502	-104.3804473876953	462.1350402832032	-1029.940795898438	21.46928787231446	402.3473510742189	-944.0838012695315	59.04319381713869	300.2500000000001	-932.9090576171877	82.79959869384767	340.6962280273438	-938.759948730469	128.9094390869141	336.4529113769532	-973.7445068359377	223.0557098388672	209.6914062500001	-962.4231567382815	221.7257995605469	247.274642944336	-1037.256225585938	210.6925964355469	157.7139282226563	-1011.545532226563	353.1082458496094	305.9304199218751	-1017.447814941406	349.5996093750001	312.8644714355469	-972.137634277344	345.7579345703126	275.7092590332032	-922.1979980468752	
